<svg width="81" height="81" viewBox="0 0 81 81" fill="none" xmlns="http://www.w3.org/2000/svg">
<rect x="0.410156" y="0.09375" width="80" height="80.5" rx="40" fill="#9867FF"/>
<g clip-path="url(#clip0_52_347)">
<path d="M35.8967 27.0893H25.7908C24.8557 27.0893 24.0585 27.4189 23.3992 28.0783C22.7398 28.7376 22.4102 29.5348 22.4102 30.4699V40.5758C22.4102 41.5109 22.7398 42.3081 23.3992 42.9674C24.0585 43.6267 24.8557 43.9564 25.7908 43.9564H30.3222L28.6319 52.7676C28.56 53.1033 28.6379 53.409 28.8657 53.6847C29.0935 53.9604 29.3752 54.0983 29.7109 54.0983H33.3792C33.8587 54.0983 34.2963 53.9544 34.6919 53.6667C35.0875 53.379 35.3572 52.9954 35.5011 52.5158L38.8457 44.6397C39.1334 43.5368 39.2773 42.4219 39.2773 41.2951V30.4699C39.2773 29.5348 38.9476 28.7376 38.2883 28.0783C37.6289 27.4189 36.8317 27.0893 35.8967 27.0893ZM37.0475 41.2951C37.0475 42.2062 36.9276 43.0933 36.6879 43.9564L33.3792 51.8325H31.0775L32.8038 43.0573C32.8757 42.7216 32.7978 42.4159 32.57 42.1402C32.3422 41.8645 32.0485 41.7266 31.6889 41.7266H25.7908C25.4791 41.7266 25.2154 41.6128 24.9996 41.385C24.7838 41.1572 24.6759 40.8995 24.6759 40.6118V30.4699C24.6759 30.1582 24.7838 29.8945 24.9996 29.6787C25.2154 29.4629 25.4791 29.355 25.7908 29.355H35.8967C36.2084 29.355 36.4781 29.4629 36.7059 29.6787C36.9336 29.8945 37.0475 30.1582 37.0475 30.4699V41.2951ZM55.0295 27.0893H44.9236C43.9886 27.0893 43.1914 27.4189 42.532 28.0783C41.8727 28.7376 41.543 29.5348 41.543 30.4699V40.5758C41.543 41.5109 41.8727 42.3081 42.532 42.9674C43.1914 43.6267 43.9886 43.9564 44.9236 43.9564H49.4551L47.7288 52.7676C47.6809 53.1033 47.7708 53.409 47.9986 53.6847C48.2263 53.9604 48.5081 54.0983 48.8437 54.0983H52.4761C52.9796 54.0983 53.4291 53.9544 53.8247 53.6667C54.2203 53.379 54.4901 52.9954 54.6339 52.5158L57.9426 44.6397C58.2543 43.5368 58.4102 42.4219 58.4102 41.2951V30.4699C58.4102 29.5348 58.0805 28.7376 57.4211 28.0783C56.7618 27.4189 55.9646 27.0893 55.0295 27.0893ZM56.1444 41.2951C56.1444 42.2062 56.0365 43.0933 55.8207 43.9564L52.4761 51.8325H50.2104L51.9366 43.0573C51.9846 42.7216 51.8947 42.4159 51.6669 42.1402C51.4391 41.8645 51.1574 41.7266 50.8217 41.7266H44.9236C44.612 41.7266 44.3422 41.6128 44.1145 41.385C43.8867 41.1572 43.7728 40.8995 43.7728 40.6118V30.4699C43.7728 30.1582 43.8867 29.8945 44.1145 29.6787C44.3422 29.4629 44.612 29.355 44.9236 29.355H55.0295C55.3412 29.355 55.605 29.4629 55.8207 29.6787C56.0365 29.8945 56.1444 30.1582 56.1444 30.4699V41.2951Z" fill="white"/>
</g>
<defs>
<clipPath id="clip0_52_347">
<rect width="36" height="38" fill="white" transform="matrix(1 0 0 -1 22.4102 59.5938)"/>
</clipPath>
</defs>
</svg>
