<svg width="33" height="33" viewBox="0 0 33 33" fill="none" xmlns="http://www.w3.org/2000/svg">
<path d="M24.063 2.33936C23.8872 2.16211 23.6474 2.0625 23.3977 2.0625C23.1479 2.0625 22.9084 2.16235 22.7324 2.3396L19.9629 5.13062C19.7795 5.31519 19.5361 5.417 19.2778 5.417C19.081 5.417 14.3737 5.417 13.5488 5.417C13.2902 5.417 13.0471 5.31519 12.862 5.12916L10.1411 2.40064C9.96529 2.22412 9.72627 2.125 9.47725 2.125C9.47701 2.125 9.4775 2.125 9.47725 2.125C9.22774 2.12524 8.98775 2.2251 8.81197 2.4021L0.709657 10.5642C0.346131 10.9304 0.346863 11.5215 0.711366 11.887L3.0351 14.2151C3.47529 14.6587 3.71772 15.2488 3.71772 15.877C3.71772 16.6897 3.94575 17.4671 4.36958 18.1367C3.44721 19.2583 3.50678 20.9287 4.54926 21.9788C5.0539 22.4873 5.71479 22.7813 6.42353 22.816C6.456 23.5015 6.7314 24.1773 7.24995 24.6995C7.75459 25.208 8.41548 25.502 9.12447 25.5367C9.15669 26.2222 9.43233 26.898 9.95064 27.4202C10.7668 28.2425 11.9379 28.4498 12.927 28.0945C13.0632 28.4881 13.2868 28.8572 13.5984 29.1709C14.7114 30.2925 16.5163 30.2928 17.6296 29.1709L18.0254 28.7725C18.2727 28.5232 18.4643 28.2388 18.601 27.9353C19.7082 28.9136 21.4148 28.8919 22.4936 27.805C23.0122 27.2828 23.2876 26.607 23.3198 25.9214C24.0285 25.887 24.6897 25.5928 25.1943 25.0843C25.7129 24.562 25.9883 23.8863 26.0207 23.2007C26.7292 23.1663 27.3904 22.8721 27.895 22.3638C28.9316 21.3196 28.9968 19.6616 28.0906 18.5401C28.751 17.6096 29.1086 16.499 29.1086 15.3328C29.1086 15.0596 29.2182 14.7925 29.4094 14.5999L32.1653 11.8225C32.5281 11.457 32.5281 10.8672 32.1653 10.5017L24.063 2.33936ZM5.88008 19.2581L7.23042 17.8977C7.60957 17.5157 8.2209 17.5154 8.6003 17.8977C8.9836 18.2837 8.9836 18.9116 8.6003 19.2974L7.24995 20.658C6.87056 21.0401 6.25947 21.0401 5.88008 20.658C5.49702 20.272 5.49702 19.6441 5.88008 19.2581ZM8.58076 21.9788L11.2815 19.2581C11.6608 18.876 12.2722 18.8758 12.6516 19.2581C13.0346 19.6441 13.0346 20.272 12.6516 20.658C11.6889 21.6277 11.6377 21.6792 9.95064 23.3787C9.57124 23.7605 8.96016 23.7608 8.58076 23.3785C8.19771 22.9927 8.19771 22.3648 8.58076 21.9788ZM11.2815 26.0992C10.8984 25.7134 10.8984 25.0855 11.2815 24.6995L12.6318 23.3391C13.0112 22.9571 13.6225 22.9571 14.0019 23.3391C14.3557 23.6956 14.382 24.2578 14.0822 24.646C13.9997 24.7222 14.1225 24.5996 12.6516 26.0992C12.2722 26.4815 11.6611 26.4817 11.2815 26.0992ZM16.6948 27.4515L16.299 27.8499C15.9196 28.2322 15.3086 28.2322 14.9292 27.8499C14.58 27.4983 14.55 26.9463 14.8371 26.5591C15.3518 26.0389 15.3266 26.0696 15.4162 25.9715C15.799 25.6705 16.3457 25.7002 16.6948 26.0518C17.0778 26.4378 17.0776 27.0657 16.6948 27.4515ZM26.5644 21.0428C26.185 21.4248 25.5737 21.4248 25.1943 21.0428L23.4485 19.284C23.0837 18.9165 22.49 18.9143 22.1225 19.2791C21.7551 19.6438 21.7529 20.2373 22.1177 20.6048L23.8637 22.3636C24.2468 22.7495 24.2468 23.3775 23.8637 23.7632C23.4844 24.1455 22.873 24.1455 22.4936 23.7632L20.7478 22.0044C20.3828 21.637 19.7893 21.6348 19.4218 21.9995C19.0544 22.3643 19.0522 22.958 19.417 23.3255L21.1628 25.0843C21.5461 25.4703 21.5461 26.0982 21.1628 26.4839C20.7837 26.8663 20.1723 26.8663 19.7927 26.4839C17.9548 24.6475 18.0429 24.6878 17.8579 24.576C17.3803 24.1648 16.7888 23.9265 16.1584 23.8943C16.1245 23.2115 15.8491 22.5386 15.3327 22.0181C15.0678 21.7515 14.7597 21.544 14.4245 21.4019C15.0603 20.3074 14.913 18.8748 13.9821 17.9373C13.028 16.9761 11.6008 16.8596 10.5366 17.4829C10.3986 17.1536 10.1972 16.8448 9.93111 16.5769C8.81783 15.4553 7.01313 15.4553 5.89961 16.5769L5.75019 16.7276C5.64717 16.46 5.59272 16.1726 5.59272 15.877C5.59272 14.7505 5.15693 13.6914 4.36396 12.8924L2.6977 11.2229L9.47871 4.39161L11.5329 6.45142C11.9919 6.91383 12.5805 7.19825 13.2165 7.27198L9.02705 12.2991C8.69575 12.697 8.74947 13.2881 9.14717 13.6194C10.1088 14.4209 11.3252 14.8001 12.572 14.6868C13.8186 14.5735 14.9467 13.9815 15.7492 13.0183C16.0849 12.6155 16.6496 12.4942 17.123 12.7227C18.0891 13.1895 19.1508 13.3599 20.1953 13.2266L26.5644 19.6429C26.9475 20.0288 26.9475 20.6568 26.5644 21.0428ZM28.0788 13.2788C27.5337 13.8279 27.2336 14.5574 27.2336 15.3328C27.2336 15.9871 27.0639 16.6145 26.7471 17.1653L22.1872 12.572C23.1194 12.0535 23.8838 11.2739 24.3908 10.3076C24.6313 9.84913 24.4546 9.28248 23.9961 9.042C23.5376 8.80128 22.9709 8.97804 22.7304 9.43654C22.2217 10.4063 21.3484 11.0535 20.3701 11.2932C20.3271 11.2998 20.2844 11.3091 20.2426 11.3218C19.4909 11.4773 18.685 11.395 17.9387 11.0344C16.6889 10.4307 15.1965 10.7529 14.3078 11.8194C13.8269 12.3963 13.1501 12.7515 12.4023 12.8196C11.9773 12.8582 11.5583 12.8013 11.1696 12.657L15.5097 7.44825C15.8498 7.34449 16.2024 7.28394 16.5578 7.28394H19.2778C20.0395 7.28394 20.7553 6.99342 21.2937 6.45142L23.3979 4.33081L30.1792 11.1621L28.0788 13.2788Z" fill="#222737"/>
</svg>
