<svg width="33" height="33" viewBox="0 0 33 33" fill="none" xmlns="http://www.w3.org/2000/svg">
<path fill-rule="evenodd" clip-rule="evenodd" d="M16.5 3.10937C12.8992 3.10937 9.88953 5.64812 9.16612 9.03412C9.07372 9.46664 8.69159 9.77575 8.24931 9.77575H8C4.90839 9.77575 2.375 12.3091 2.375 15.4007C2.375 18.4924 4.90839 21.0257 8 21.0257H9.0625V17.3114C9.0625 16.914 9.31304 16.5598 9.68774 16.4274L16.1877 14.1313C16.3898 14.0599 16.6102 14.0599 16.8123 14.1313L23.3123 16.4274C23.687 16.5598 23.9375 16.914 23.9375 17.3114V21.0268C23.9526 21.0261 23.9679 21.0257 23.9832 21.0257H25C28.0914 21.0257 30.625 18.4923 30.625 15.4007C30.625 12.3091 28.0916 9.77575 25 9.77575H24.7507C24.3084 9.77575 23.9263 9.46664 23.8339 9.03412C23.1105 5.64812 20.1008 3.10937 16.5 3.10937ZM23.9375 22.8997V23.4631C23.9375 27.7108 20.7355 31.2263 16.6201 31.7579C16.5404 31.7682 16.4596 31.7682 16.3799 31.7579C12.2646 31.2263 9.0625 27.7109 9.0625 23.4631V22.9007H8C3.87286 22.9007 0.5 19.5279 0.5 15.4007C0.5 11.4353 3.61373 8.16622 7.5185 7.91613C8.67594 4.05147 12.2577 1.23438 16.5 1.23438C20.7423 1.23438 24.3241 4.05147 25.4815 7.91613C29.3863 8.16622 32.5 11.4353 32.5 15.4007C32.5 19.5279 29.1269 22.9007 25 22.9007H23.9832C23.9679 22.9007 23.9526 22.9004 23.9375 22.8997ZM10.9375 23.4631C10.9375 26.7061 13.3569 29.4161 16.5 29.8817C19.6431 29.4161 22.0625 26.706 22.0625 23.4631V17.9745L16.5 16.0095L10.9375 17.9745V23.4631ZM19.1899 21.1356C19.5552 21.5026 19.5537 22.0962 19.1867 22.4614L16.549 25.0864C16.1832 25.4504 15.5921 25.4504 15.2264 25.0864L13.8133 23.6801C13.4463 23.3149 13.4449 22.7213 13.8101 22.3543C14.1753 21.9873 14.7689 21.9859 15.1359 22.3511L15.8877 23.0992L17.8641 21.1324C18.2311 20.7671 18.8247 20.7686 19.1899 21.1356Z" fill="#222737"/>
</svg>
