<svg width="33" height="33" viewBox="0 0 33 33" fill="none" xmlns="http://www.w3.org/2000/svg">
<path d="M30.3666 14.3425C30.3666 9.73899 28.1001 5.66956 24.6254 3.14886C24.5612 3.09546 24.5078 3.04206 24.4436 2.98865C24.4222 2.97797 24.3902 2.96729 24.3688 2.95661C22.1343 1.40788 19.4294 0.5 16.5 0.5C13.5706 0.5 10.8977 1.37583 8.57768 2.98865C8.57768 2.98865 8.567 2.98865 8.55631 2.98865C8.54561 2.98865 8.53492 3.01002 8.51354 3.02069C7.87205 3.46929 7.25196 3.9713 6.68532 4.53739C4.07663 7.16489 2.6333 10.6362 2.6333 14.3318V14.7804V22.4066C2.6333 23.8378 3.79866 25.002 5.2313 25.002H7.60478C9.03742 25.002 10.2028 23.8378 10.2028 22.4066V16.3078C10.2028 14.8765 9.03742 13.7123 7.60478 13.7123H4.79295C4.93194 11.0848 5.92623 8.61749 7.65823 6.64153C7.77584 6.86582 7.92551 7.07944 8.10726 7.27169C8.64183 7.8271 9.36884 8.10481 10.1065 8.10481C10.6839 8.10481 11.2612 7.93391 11.7744 7.57076C14.5648 5.62684 18.4564 5.63752 21.1935 7.56009C22.3482 8.37183 23.8877 8.24366 24.8499 7.26101C25.0317 7.07943 25.1707 6.85514 25.2989 6.63084C26.9775 8.54272 28.0252 10.9993 28.175 13.7016H25.3631C23.9305 13.7016 22.7651 14.8659 22.7651 16.297V22.3959C22.7651 23.8271 23.9305 24.9913 25.3631 24.9913H25.4807V25.4613C25.4807 26.9886 24.2298 28.2383 22.7009 28.2383H20.8941C20.5092 27.01 19.3652 26.1021 18.0075 26.1021H14.9604C13.2819 26.1021 11.9241 27.4693 11.9241 29.1355V29.4666C11.9241 31.1435 13.2926 32.5 14.9604 32.5H18.0075C19.3652 32.5 20.5092 31.6028 20.8941 30.3638H22.7009C25.4166 30.3638 27.619 28.1636 27.619 25.4506V24.9806H27.7366C29.1692 24.9806 30.3345 23.8164 30.3345 22.3852V14.7804C30.3345 14.7804 30.3345 14.7697 30.3345 14.759V14.3105L30.3666 14.3425ZM8.09658 16.3291V22.4279C8.09658 22.6842 7.89344 22.8872 7.63685 22.8872H5.26337C5.00678 22.8872 4.80365 22.6842 4.80365 22.4279V15.8698H7.63685C7.89344 15.8698 8.09658 16.0728 8.09658 16.3291ZM23.3531 5.78705C23.1179 6.02203 22.7544 6.04339 22.4444 5.82977C20.7123 4.61215 18.6596 3.9713 16.5106 3.9713C14.3617 3.9713 12.3197 4.61215 10.577 5.84046C10.2776 6.05407 9.90341 6.03271 9.6682 5.79773C9.48645 5.60547 9.47575 5.39185 9.48645 5.28505C9.50783 5.08211 9.61474 4.88986 9.7965 4.76169C11.753 3.38384 14.0731 2.63618 16.5106 2.63618C18.9483 2.63618 21.3645 3.44794 23.2783 4.80441C23.4173 4.93258 23.5135 5.08211 23.5348 5.26368C23.5348 5.3705 23.5348 5.59479 23.3531 5.77637V5.78705ZM18.9376 29.5094C18.9376 30.0007 18.5313 30.4066 18.0395 30.4066H14.9924C14.5007 30.4066 14.0944 30.0007 14.0944 29.5094V29.1782C14.0944 28.6762 14.5007 28.281 14.9924 28.281H18.0395C18.5313 28.281 18.9376 28.6869 18.9376 29.1782V29.5094ZM28.2284 22.4279C28.2284 22.6842 28.0145 22.8872 27.7687 22.8872H25.3951C25.1386 22.8872 24.9355 22.6842 24.9355 22.4279V16.3291C24.9355 16.0728 25.1492 15.8698 25.3951 15.8698H28.2284V22.4279Z" fill="#222737"/>
</svg>
