<svg width="33" height="33" viewBox="0 0 33 33" fill="none" xmlns="http://www.w3.org/2000/svg">
<path d="M20.1698 25.4452L25.2521 30.5276C26.6639 31.9393 29.1109 31.9393 30.5227 30.5276C32.0286 29.1159 32.0286 26.6688 30.5227 25.2569L25.4403 20.1747C26.3815 18.3864 26.9462 16.3159 26.9462 14.1511C26.9462 13.7746 26.9462 13.3982 26.8521 13.1158L30.3345 9.63346C30.7109 9.25699 30.7109 8.69228 30.3345 8.31581C29.9579 7.93934 29.3933 7.93934 29.0169 8.31581L26.4757 10.857C25.9109 8.69228 24.7815 6.80994 23.1815 5.20992C18.1933 0.221693 10.1933 0.221693 5.20505 5.20992C0.216808 10.1982 0.216808 18.1981 5.20505 23.1864C9.34622 27.3276 15.4639 27.9864 20.1698 25.4452ZM29.1109 26.5747C29.8639 27.3276 29.8639 28.4569 29.1109 29.2099C28.3579 29.9629 27.2286 29.9629 26.4757 29.2099L21.6757 24.4099C22.1462 24.0335 22.6169 23.6569 23.0874 23.1864C23.5579 22.7159 23.9345 22.2452 24.3109 21.7747L29.1109 26.5747ZM6.52269 6.52758C10.758 2.29228 17.6286 2.29228 21.8639 6.52758C23.4639 8.12758 24.4991 10.1982 24.8757 12.457L22.9933 14.3393L19.8874 11.2335C19.5109 10.857 18.9462 10.857 18.5698 11.2335L13.6756 16.1276L11.5109 13.9629C11.1345 13.5864 10.5698 13.5864 10.1933 13.9629L6.42858 17.7276C6.0521 18.104 6.0521 18.6688 6.42858 19.0452C6.80505 19.4217 7.36975 19.4217 7.74622 19.0452L10.8521 15.9393C12.2639 17.0688 13.2992 19.1393 14.3345 18.104L19.2286 13.2099L22.3345 16.3159C22.711 16.6923 23.2757 16.6923 23.6521 16.3159L24.9698 14.9981C24.7815 17.6335 23.6521 19.9864 21.8639 21.8688C17.6286 26.104 10.758 26.104 6.52269 21.8688C2.28739 17.6335 2.28739 10.7629 6.52269 6.52758Z" fill="#222737"/>
</svg>
